PathFileType	4	(X/Y/Z)	C:/Users/opensim2020/Desktop/walking_exp_matlab/subject06_walking18_straight_03_cyclic.trc	
DataRate	CameraRate	NumFrames	NumMarkers	Units	OrigDataRate	OrigDataStartFrame	OrigNumFrames	
100.00	100.00	7	47	mm	100.00	3416	148	
Frame#	Time	LFHD			RFHD			LBHD			RBHD			C7			T10			CLAV			STRN			RBAK			LSHO			LUPA			LELB			LFRM			LWRA			LWRB			LFIN			RSHO			RUPA			RELB			RFRM			RWRA			RWRB			RFIN			LASI			RASI			LPSI			RPSI			LTHI			LKNE			LTIB			LANK			LHEE			LTOE			RTHI			RKNE			RTIB			RANK			RHEE			RTOE			*39			*40			*41			*42			*43			*44			*45			*46			
		X1	Y1	Z1	X2	Y2	Z2	X3	Y3	Z3	X4	Y4	Z4	X5	Y5	Z5	X6	Y6	Z6	X7	Y7	Z7	X8	Y8	Z8	X9	Y9	Z9	X10	Y10	Z10	X11	Y11	Z11	X12	Y12	Z12	X13	Y13	Z13	X14	Y14	Z14	X15	Y15	Z15	X16	Y16	Z16	X17	Y17	Z17	X18	Y18	Z18	X19	Y19	Z19	X20	Y20	Z20	X21	Y21	Z21	X22	Y22	Z22	X23	Y23	Z23	X24	Y24	Z24	X25	Y25	Z25	X26	Y26	Z26	X27	Y27	Z27	X28	Y28	Z28	X29	Y29	Z29	X30	Y30	Z30	X31	Y31	Z31	X32	Y32	Z32	X33	Y33	Z33	X34	Y34	Z34	X35	Y35	Z35	X36	Y36	Z36	X37	Y37	Z37	X38	Y38	Z38	X39	Y39	Z39	X40	Y40	Z40	X41	Y41	Z41	X42	Y42	Z42	X43	Y43	Z43	X44	Y44	Z44	X45	Y45	Z45	X46	Y46	Z46	X47	Y47	Z47	

56	0.550	1389.96729	-114.61058	1659.02771	1521.24292	-110.70089	1647.37622	1392.82800	-245.94594	1600.55273	1522.20581	-240.91289	1594.16040	1448.88013	-241.23961	1445.58875	1460.31042	-284.55661	1118.67029	1448.12964	-132.00514	1367.60852	1445.14294	-96.12640	1191.95251	1534.65088	-314.52872	1279.09143	1286.04517	-190.04955	1398.64990	1218.85107	-224.65570	1199.39453	1211.00659	-247.99756	1089.32507	1190.17224	-244.27753	938.41010	1229.98987	-195.48965	818.04596	1196.04626	-258.11044	819.71106	1194.66101	-226.84877	734.38574	1608.49609	-171.75566	1401.66003	1701.07227	-198.21538	1203.63916	1711.66748	-181.75288	1082.36353	1722.15393	-144.96654	967.74261	1677.09546	-62.86805	845.27008	1722.09888	-110.62164	834.79822	1717.22681	-59.03154	768.33777	1355.15479	-104.92484	958.76501	1575.53625	-115.28628	957.88385	1373.77930	-265.97885	984.13971	1542.32031	-265.53979	987.32220	1281.62122	-122.49486	648.22424	1310.17480	-74.03206	496.21057	1309.84119	-31.76358	243.50674	1344.06409	29.82272	79.38826	1393.33691	0.30780	53.82267	1339.05188	177.03561	90.22913	1614.50867	-208.72328	625.48273	1593.90637	-226.56651	499.90820	1586.79004	-353.01672	260.58533	1540.39124	-430.42432	90.87127	1497.05115	-477.25818	75.55149	1537.48083	-287.22626	36.27882	1452.02356	-214.52660	1694.00977																					 
57	0.560	1388.18567	-107.63258	1658.31470	1519.35400	-104.21088	1646.67395	1390.81836	-238.96693	1599.86682	1520.23462	-234.16840	1593.56519	1447.00427	-234.20428	1444.76025	1458.35425	-277.17938	1117.82837	1446.45947	-125.06675	1366.94446	1443.85413	-88.93408	1191.33984	1532.66833	-307.81894	1278.30713	1284.30188	-182.76227	1397.86353	1217.08789	-217.24078	1198.58374	1209.80029	-240.37386	1088.40320	1189.44519	-236.52654	937.40472	1229.64343	-187.75891	817.21637	1195.56567	-250.83156	818.82117	1194.35120	-219.04645	733.47076	1606.74792	-165.25620	1401.17053	1699.52539	-191.96577	1203.23743	1710.25244	-175.48228	1081.94885	1720.71790	-139.16170	967.27881	1676.03540	-56.96662	844.67432	1721.01025	-104.86020	834.26099	1716.36865	-53.34893	767.77759	1354.30383	-97.04539	957.77667	1574.63562	-108.46885	957.38434	1372.27942	-258.08768	983.31665	1540.73022	-258.49890	986.86841	1280.94299	-115.54261	646.95502	1309.67407	-67.54134	494.75165	1309.60303	-26.44195	241.85652	1344.19849	34.06293	77.40352	1393.24817	4.56123	51.98950	1340.18787	181.77620	87.35173	1613.84692	-202.94566	625.11371	1593.60107	-220.77969	499.42194	1586.80542	-349.87146	261.43799	1540.77185	-429.59583	92.76056	1497.45984	-476.62415	77.97265	1537.59680	-287.12756	36.32621	1450.06274	-207.63838	1693.34192																					 
58	0.570	1386.35376	-100.54173	1657.56763	1517.65210	-97.26852	1645.98291	1388.74792	-232.00009	1599.20349	1518.18396	-227.36635	1592.98059	1444.91663	-227.09402	1443.99927	1456.38159	-269.82538	1117.03735	1444.73901	-118.01630	1366.24341	1442.42773	-81.65243	1190.68188	1530.53357	-300.95273	1277.53015	1282.45532	-175.35962	1397.08215	1215.60876	-209.60876	1197.70508	1208.63916	-232.78859	1087.52417	1188.57874	-228.79286	936.48297	1229.17334	-179.91068	816.38074	1195.02283	-242.82823	817.74078	1194.29834	-210.83374	732.42023	1604.96130	-158.74312	1400.65259	1697.81409	-185.80099	1202.85583	1708.67957	-169.42920	1081.54688	1719.50574	-133.15097	966.84235	1674.99609	-51.24168	844.04004	1719.95313	-99.17021	833.77814	1715.55371	-47.48387	767.23206	1353.37561	-88.82938	956.83264	1573.76978	-101.50278	956.86273	1370.78064	-249.91797	982.53857	1539.15918	-251.26328	986.35431	1280.08386	-108.53333	645.79773	1308.84009	-61.15472	493.17563	1309.29382	-21.56612	240.10001	1344.21716	37.40684	75.06683	1393.07349	7.48156	49.91376	1341.39124	185.36932	83.83155	1613.50049	-196.65442	624.61694	1593.45264	-214.68663	498.91568	1586.84595	-346.49625	262.35251	1541.10901	-428.61752	94.70435	1497.83545	-475.80240	80.54932	1537.68750	-287.11188	36.23412	1448.01746	-200.69249	1692.68359																					 
59	0.580	1384.49365	-93.40276	1656.82288	1515.76831	-90.48326	1645.24231	1386.56921	-224.92429	1598.51648	1516.03418	-220.56842	1592.34326	1442.76184	-220.50993	1443.02148	1454.34436	-262.25507	1116.12354	1442.98804	-110.91483	1365.55383	1440.98889	-74.21758	1190.02136	1528.30347	-294.02698	1276.71680	1280.58911	-167.88414	1396.27515	1214.27771	-201.61588	1196.73120	1207.21509	-224.83012	1086.54700	1187.52612	-220.62682	935.48779	1228.54248	-171.98645	815.46167	1194.18225	-234.15752	816.80786	1193.68835	-202.65465	731.51105	1603.04041	-152.20154	1400.11328	1696.06189	-179.62007	1202.49609	1707.08142	-163.38394	1081.17615	1718.19495	-127.33493	966.43109	1674.00427	-45.58150	843.39490	1718.95349	-93.55785	833.30835	1714.45886	-42.26804	766.49921	1352.58948	-80.56004	955.85181	1572.92273	-94.37698	956.41895	1369.26660	-241.59317	981.70709	1537.60364	-244.18571	985.90668	1279.20935	-101.27666	644.56598	1308.02307	-54.76611	491.59784	1308.82324	-17.24188	238.00266	1344.06592	39.87404	72.49742	1392.60461	9.26012	47.89981	1342.96143	188.00031	80.04594	1612.97314	-190.35849	624.20654	1593.27148	-208.39938	498.40775	1586.89111	-342.93723	263.28348	1541.48291	-427.50122	96.74214	1498.22363	-474.87289	83.32404	1537.74463	-286.98288	36.16995	1445.91321	-193.77351	1691.97949																					 
60	0.590	1382.52332	-86.31694	1656.02100	1513.82483	-83.75652	1644.50342	1384.20959	-217.77618	1597.74890	1513.73401	-213.81003	1591.64368	1440.51880	-213.37251	1442.10510	1452.11963	-254.49127	1115.13489	1441.15112	-103.76560	1364.84802	1439.49744	-66.66598	1189.36536	1525.90576	-286.79172	1275.77295	1278.55798	-160.35962	1395.42285	1212.12280	-193.88400	1195.89172	1205.69824	-216.97510	1085.63635	1186.37158	-212.45338	934.46960	1227.70837	-163.02127	814.88153	1193.37366	-225.65451	815.74121	1192.96985	-194.20082	730.55981	1600.99780	-145.68567	1399.52991	1694.23474	-173.48961	1202.11560	1705.28223	-157.63475	1080.73779	1716.85681	-121.61930	965.95587	1673.09277	-39.97480	842.68890	1718.11084	-88.18204	832.91333	1713.64221	-36.85660	765.83972	1351.76270	-71.99154	954.82635	1572.06055	-87.13996	955.85858	1367.68933	-233.12309	980.85791	1535.83459	-236.36218	985.28302	1278.44666	-93.76835	643.30719	1307.20789	-48.24176	489.88422	1308.34619	-13.62619	235.75349	1344.05908	41.61388	69.55998	1392.33691	10.26568	45.66120	1344.40491	189.77301	75.25233	1612.68152	-183.77980	623.69788	1593.14612	-201.86308	497.89227	1586.87708	-339.33331	264.32996	1541.62695	-426.26385	98.90428	1498.44641	-473.68359	86.14667	1538.10327	-287.13049	36.39254	1443.67139	-186.82050	1691.21008																					 
61	0.600	1380.58105	-79.36241	1655.22986	1511.91235	-77.02673	1643.77881	1381.81689	-210.64032	1596.96497	1511.29041	-207.12437	1590.91052	1438.15271	-206.65913	1441.26648	1449.74646	-246.54410	1114.13672	1439.28101	-96.49733	1364.22729	1437.96021	-59.01128	1188.72900	1523.33911	-279.72946	1274.71375	1276.41675	-152.66833	1394.55200	1210.16797	-185.84306	1194.94800	1203.99536	-208.74806	1084.58118	1184.96057	-204.01904	933.43604	1226.80017	-154.56151	813.95868	1192.14880	-217.53795	814.72626	1192.21985	-185.29585	729.60815	1598.87024	-139.19862	1398.94287	1692.29114	-167.39285	1201.70056	1703.57764	-151.77834	1080.30518	1715.51196	-115.98394	965.47803	1672.23669	-34.45698	841.94183	1717.19263	-82.82063	832.49500	1712.91296	-31.55783	765.19513	1350.94153	-63.24245	953.81854	1571.24756	-79.68014	955.27234	1365.81433	-224.59560	980.09692	1534.10449	-228.96790	984.84821	1277.57544	-86.02998	642.15070	1306.20569	-41.94489	488.24219	1308.33105	-10.12157	233.75900	1344.64453	43.71365	67.76746	1393.19788	12.12688	45.73245	1344.74231	192.24374	68.55588	1612.41602	-177.01860	623.18060	1593.06372	-195.10974	497.28665	1586.79321	-335.54395	265.48035	1541.92615	-424.97681	101.33456	1498.66711	-472.59592	89.36160	1538.10754	-286.80811	36.25011	1441.30481	-179.80927	1690.46094																					 
62	0.610	1378.50317	-72.00522	1654.89795	1509.93237	-70.32732	1643.38818	1379.27197	-203.33937	1596.29688	1508.73242	-200.44359	1590.27161	1435.66431	-199.61322	1440.58691	1447.40686	-238.49942	1113.21387	1437.27954	-89.19732	1363.73621	1436.36145	-51.37153	1188.21704	1520.64795	-272.82846	1273.74402	1274.13074	-144.93007	1393.80688	1208.11682	-177.65425	1193.90479	1202.05420	-200.28474	1083.48413	1183.45325	-195.41092	932.30170	1225.68066	-145.84624	813.06409	1190.87646	-208.65236	813.57574	1191.68140	-176.05605	728.31195	1596.77747	-132.66716	1398.39209	1690.35632	-161.31985	1201.22693	1701.94092	-145.99338	1079.83350	1714.16357	-110.43427	964.94012	1671.39172	-28.96748	841.16650	1716.06213	-77.30006	831.66754	1712.22388	-26.43365	764.45483	1350.09875	-54.60266	952.90588	1570.56775	-72.03324	954.77820	1363.90405	-216.10922	979.61816	1532.35437	-221.10654	984.37024	1276.27905	-78.17963	641.33380	1304.45447	-36.33435	487.10150	1308.44202	-6.02700	232.92958	1343.74841	46.68148	67.53140	1392.62854	15.03592	47.08596	1343.95178	195.96690	63.41953	1612.03516	-169.97800	622.67078	1592.92944	-188.18253	496.74112	1586.58618	-331.52667	266.78455	1542.14880	-423.37720	103.85597	1499.02100	-471.15427	92.77235	1538.25647	-286.74896	36.32866	1438.90857	-172.93556	1689.84888																					 
